<svg xmlns="http://www.w3.org/2000/svg" viewBox="0 0 26 26">
    <path fill="#fff" fill-rule="evenodd" d="M13,0A13.17,13.17,0,0,0,0,13.33,13.31,13.31,0,0,0,8.89,26c.65.12.89-.29.89-.65s0-1.15,0-2.26c-3.62.8-4.38-1.79-4.38-1.79a3.51,3.51,0,0,0-1.44-2c-1.18-.83.09-.81.09-.81a2.76,2.76,0,0,1,2,1.37A2.73,2.73,0,0,0,9.8,21a2.88,2.88,0,0,1,.83-1.78c-2.89-.34-5.92-1.48-5.92-6.59A5.22,5.22,0,0,1,6,9.06a4.93,4.93,0,0,1,.13-3.53s1.09-.36,3.58,1.36A12.14,12.14,0,0,1,13,6.45a12.27,12.27,0,0,1,3.26.44c2.48-1.72,3.57-1.36,3.57-1.36A4.93,4.93,0,0,1,20,9.06a5.22,5.22,0,0,1,1.33,3.57c0,5.12-3,6.25-5.93,6.58a3.24,3.24,0,0,1,.88,2.47c0,1.78,0,3.22,0,3.65s.24.78.9.65A13.31,13.31,0,0,0,26,13.33,13.17,13.17,0,0,0,13,0Z"/>
</svg>
