<svg xmlns="http://www.w3.org/2000/svg" viewBox="0 0 26 26" fill="#fff" fill-rule="evenodd">
    <g class="l-h-arrow">
        <rect class="l-a-line" x="5.2" y="15.6" width="8.98" height="2.6"/>
        <polygon class="l-a-head" points="0 16.9 5.2 22.1 5.2 11.7 0 16.9"/>
    </g>
    <g class="r-h-arrow">
        <polygon class="r-a-head" points="26 9.1 20.8 14.3 20.8 3.9 26 9.1"/>
        <rect class="r-a-line" x="11.82" y="7.8" width="8.98" height="2.6" transform="translate(32.62 18.2) rotate(180)"/>
    </g>
    <path class="u" d="M24.19,21.81q0,4.19-3.9,4.19t-3.78-4.09V16.54h2.1v5.4c0,1.5.58,2.25,1.76,2.25S22.1,23.47,22.1,22V16.54h2.09Z"/>
    <path class="z" d="M9.42,9.46H1.81V8.23l4.84-6.5H2.16V0H9.41V1.19L4.67,7.73H9.42Z"/>
</svg>
