<svg xmlns="http://www.w3.org/2000/svg" viewBox="0 0 16 16">
    <rect x="3.2" y="9.6" width="5.53" height="1.6"/>
    <polygon points="0 10.4 3.2 13.6 3.2 7.2 0 10.4"/>
    <polygon points="16 5.6 12.8 8.8 12.8 2.4 16 5.6"/>
    <rect x="7.27" y="4.8" width="5.53" height="1.6" transform="translate(20.07 11.2) rotate(180)"/>
    <path d="M14.89,13.42q0,2.58-2.4,2.58c-1.56,0-2.33-.84-2.33-2.52v-3.3h1.29V13.5c0,.92.36,1.39,1.08,1.39s1.07-.45,1.07-1.34V10.18h1.29Z"/>
    <path d="M5.8,5.82H1.11V5.06l3-4H1.33V0H5.79V.73l-2.92,4H5.8Z"/>
</svg>
